<svg xmlns="http://www.w3.org/2000/svg" xmlns:xlink="http://www.w3.org/1999/xlink" width="32" height="32" viewBox="0 0 32 32">
    <defs>
        <path id="a" d="M19.504 13.294c-.003.015-.164 1.639.589 2.485.298.338.7.504 1.223.509h.024c.525-.005.925-.171 1.225-.51.755-.85.589-2.467.587-2.484-.003-.004-.003-.012-.003-.02-.074-1.611-1.165-1.873-1.807-1.887H21.313c-.518 0-1.728.182-1.807 1.888l-.002.019zm1.772 4.687c-.933-.016-1.688-.345-2.242-.972-1.226-1.383-1.023-3.753-1.001-3.98.079-1.711.896-2.523 1.564-2.902.666-.38 1.361-.437 1.715-.437h.053c.644.013 1.221.166 1.715.45.662.38 1.466 1.19 1.545 2.889.023.227.227 2.597-1 3.98-.558.627-1.313.956-2.246.972H21.276zm.221 4.36c.004.222.01 1.358-.205 1.926a.57.57 0 0 1-.22.268c-.129.08-3.192 2.037-8.317 2.037-5.124 0-8.188-1.952-8.315-2.037a.547.547 0 0 1-.22-.268c-.227-.571-.223-1.71-.219-1.93v-.013c.004-.034.004-.068.004-.107.026-.838.082-2.811 1.93-3.446.013-.004.026-.01.042-.013 1.931-.49 3.541-1.555 3.56-1.567.513-.186.737.14.921.4.183.26.368.942.162 1.143-.06.039-1.83.908-3.543 1.499-.82.293-1.125 1.127-1.15 1.93 0 .032-.003.06-.003.088-.007.317.017.806.074 1.089.574.324 3.364 1.459 6.753 1.459 3.402 0 6.332-1.33 6.902-1.654.057-.282.077-.771.075-1.09-.003-.027-.003-.054-.003-.087-.025-.803-.81-1.47-1.632-1.762-1.764-.648-3.155-1.427-3.215-1.47-.215-.15.031-1.013.214-1.272.184-.261.421-.575.893-.311.016.012 1.614 1.12 3.535 1.609.013.005.03.009.043.013 1.848.63 1.904 2.604 1.93 3.447 0 .038.004.072.004.106v.013zm6.378-.428c.003.165.006 1.017-.152 1.44a.432.432 0 0 1-.167.2c-.092.058-2.222 1.412-5.798 1.512a8.897 8.897 0 0 0 1.005-.53.576.576 0 0 0 .222-.268c.051-.137.643-1 .662-1.125 1.276-.194 2.206-.63 2.45-.768.031-.157.03-.494.028-.67-.002-.015-.002-.032-.002-.049a1.133 1.133 0 0 0-.748-1.03 17.221 17.221 0 0 1-2.038-.928c-.119-.085-.682-.371-.252-1.432.148-.226.315-.43.667-.233.013.009 1.208.837 2.644 1.203.01.005.023.008.033.01 1.383.471 1.424 1.947 1.443 2.578 0 .029.003.055.003.08v.01zM10.03 10.736c0-.011.003-.021.003-.028.117-2.536 1.918-2.81 2.689-2.81h.042c.955.022 2.578.41 2.688 2.81 0 .01 0 .02.005.028.002.025.25 2.43-.875 3.696-.446.502-1.04.75-1.821.757h-.035c-.78-.007-1.377-.255-1.82-.757-1.12-1.26-.88-3.675-.876-3.696m2.645 6.348h.136c1.248-.021 2.258-.46 3.004-1.3 1.64-1.848 1.367-5.017 1.337-5.32-.106-2.27-1.18-3.356-2.066-3.864-.66-.38-1.431-.583-2.292-.6h-.073c-.473 0-1.401.076-2.292.583-.894.507-1.984 1.593-2.091 3.882-.03.302-.303 3.47 1.337 5.32.742.84 1.75 1.278 3 1.299"/>
    </defs>
    <g fill="none" fill-rule="evenodd">
        <mask id="b" fill="#fff">
            <use xlink:href="#a"/>
        </mask>
        <use fill="#FFF" xlink:href="#a"/>
        <g fill="#BFBFBF" mask="url(#b)">
            <path d="M0 0h32v32H0z"/>
        </g>
    </g>
</svg>
